<svg xmlns="http://www.w3.org/2000/svg" width="192" height="192" viewBox="0 0 192 192">
  <defs>
    <linearGradient id="bg" x1="0%" y1="0%" x2="100%" y2="100%">
      <stop offset="0%" style="stop-color:#08080f"/>
      <stop offset="100%" style="stop-color:#0d1117"/>
    </linearGradient>
    <linearGradient id="accent" x1="0%" y1="0%" x2="100%" y2="100%">
      <stop offset="0%" style="stop-color:#00ff88"/>
      <stop offset="100%" style="stop-color:#00f0ff"/>
    </linearGradient>
  </defs>
  <rect width="192" height="192" rx="40" fill="url(#bg)"/>
  <g transform="translate(96,88) scale(3.5)">
    <path d="M12 12 C 10.5 9.5, 8.5 9.5, 8.5 7.5 C 8.5 5.5, 10.5 5.5, 12 7.5 C 13.5 5.5, 15.5 5.5, 15.5 7.5 C 15.5 9.5, 13.5 9.5, 12 12 Z" fill="url(#accent)" opacity="0.9"/>
    <path d="M12 12 C 10.5 9.5, 8.5 9.5, 8.5 7.5 C 8.5 5.5, 10.5 5.5, 12 7.5 C 13.5 5.5, 15.5 5.5, 15.5 7.5 C 15.5 9.5, 13.5 9.5, 12 12 Z" fill="url(#accent)" opacity="0.9" transform="rotate(90 12 12)"/>
    <path d="M12 12 C 10.5 9.5, 8.5 9.5, 8.5 7.5 C 8.5 5.5, 10.5 5.5, 12 7.5 C 13.5 5.5, 15.5 5.5, 15.5 7.5 C 15.5 9.5, 13.5 9.5, 12 12 Z" fill="url(#accent)" opacity="0.9" transform="rotate(180 12 12)"/>
    <path d="M12 12 C 10.5 9.5, 8.5 9.5, 8.5 7.5 C 8.5 5.5, 10.5 5.5, 12 7.5 C 13.5 5.5, 15.5 5.5, 15.5 7.5 C 15.5 9.5, 13.5 9.5, 12 12 Z" fill="url(#accent)" opacity="0.9" transform="rotate(270 12 12)"/>
    <path d="M12 12c0 3.5 1 6.5 2.5 8" stroke="url(#accent)" stroke-width="1.5" stroke-linecap="round" fill="none"/>
  </g>
  <text x="96" y="155" text-anchor="middle" font-family="system-ui" font-weight="900" font-size="18" fill="#ffffff">MEU TREVO</text>
</svg>
